<svg width="100" height="100" viewBox="0 0 100 100" fill="none" xmlns="http://www.w3.org/2000/svg">
<rect width="100" height="100" fill="#C5BFB7"/>
<path d="M56.7333 29.9667H52.3333V34.4333H56.7333V29.9667ZM47.9333 74.8333H43.5333V79.3H39.1667V83.8H34.7667V88.3H30.3667H25.9667V83.8H21.5667H17.1667V79.3H21.5667V74.8H25.9667V70.3333H21.5667H17.2H17.1667H12.8V65.8667H8.4V61.3667H4V56.8667V52.3667H8.4V47.9V43.4H12.8V38.9333H17.1667V34.4333H21.5667V29.9667V29.9333V25.4667H25.9667V20.9667V16.4667H30.3667V12H34.7667H39.1667V16.4667V16.5V20.9667V25.4667H43.5333V20.9667H47.9333V16.4667H52.3333V12H56.7333H61.1333V16.4667V16.5V20.9667V25.4667H56.7333V29.9333H61.1333H65.5H65.5333H69.9V25.4667H74.3V20.9667H78.7V16.4667H83.1H87.5V20.9667H91.9V25.4667H96.2667V29.9333V29.9667V34.4333V38.9333H91.9V43.4V43.4333V47.9V52.3667V52.4V56.8667H87.5V61.3667H83.1V65.8667H78.7V70.3333H74.3V74.8333H69.9H65.5333V79.3H61.1333H56.7333V83.8H52.3333H47.9333V79.3V74.8333ZM12.8 65.8333H17.1667H17.2H21.5667V61.3667H17.2H17.1667H12.8V65.8333ZM47.9333 74.8H52.3333V70.3333H47.9333V74.8ZM34.7667 56.8667V52.4V52.3667V47.9H30.3667V52.4V56.8667H34.7667Z" fill="#FFED94"/>
</svg>
